<svg xmlns="http://www.w3.org/2000/svg" width="40" height="40" viewBox="0 0 40 40"><title>analytics</title><path d="M39.17,38.33h-.84V14.17a.84.84,0,0,0-.83-.84h-5a.84.84,0,0,0-.83.84V38.33H28.33V24.17a.84.84,0,0,0-.83-.84h-5a.84.84,0,0,0-.83.84V38.33H18.33V20.83A.83.83,0,0,0,17.5,20h-5a.83.83,0,0,0-.83.83v17.5H8.33V29.17a.84.84,0,0,0-.83-.84h-5a.84.84,0,0,0-.83.84v9.16H.83a.84.84,0,0,0-.83.84A.83.83,0,0,0,.83,40H39.17a.83.83,0,0,0,.83-.83A.84.84,0,0,0,39.17,38.33Z"/><path d="M35,0a3.32,3.32,0,0,0-2.86,5l-5.46,5.45a3.27,3.27,0,0,0-4.26.78l-4.1-1.17s0-.05,0-.08a3.33,3.33,0,1,0-6.66,0A3.29,3.29,0,0,0,12,11.36L6.75,15.51A3.29,3.29,0,0,0,5,15a3.34,3.34,0,1,0,3.33,3.33,3.22,3.22,0,0,0-.43-1.6L13,12.66a3.27,3.27,0,0,0,2,.67,3.31,3.31,0,0,0,2.86-1.65l3.86,1.1a3.41,3.41,0,0,0,0,.55,3.33,3.33,0,1,0,6.19-1.68l5.46-5.46A3.2,3.2,0,0,0,35,6.67,3.34,3.34,0,0,0,35,0Z"/></svg>