<svg xmlns="http://www.w3.org/2000/svg" width="40" height="40" viewBox="0 0 40 40"><title>calendar</title><path d="M38.13,3.32H30.25V0H27.4V3.32H12.6V0H9.75V3.32H1.87A1.4,1.4,0,0,0,.45,4.74V38.58A1.4,1.4,0,0,0,1.87,40H38.13a1.4,1.4,0,0,0,1.42-1.42V4.74A1.43,1.43,0,0,0,38.13,3.32ZM10.18,32.69a2.8,2.8,0,1,1,2.8-2.8A2.77,2.77,0,0,1,10.18,32.69Zm0-8.35a2.8,2.8,0,1,1,2.8-2.8A2.77,2.77,0,0,1,10.18,24.34ZM20,32.69a2.8,2.8,0,1,1,2.8-2.8A2.8,2.8,0,0,1,20,32.69Zm0-8.35a2.8,2.8,0,1,1,2.8-2.8A2.8,2.8,0,0,1,20,24.34Zm9.82,8.35a2.8,2.8,0,1,1,2.8-2.8A2.78,2.78,0,0,1,29.82,32.69Zm0-8.35a2.8,2.8,0,1,1,2.8-2.8A2.78,2.78,0,0,1,29.82,24.34ZM36.7,11.2v.57H3.3V6.17H9.75V9.58H12.6V6.17H27.4V9.58h2.85V6.17H36.7Z"/></svg>