<svg xmlns="http://www.w3.org/2000/svg" width="40" height="40" viewBox="0 0 40 40"><title>coconut</title><path d="M4.85,12.92a17.89,17.89,0,0,0-1.6,3.81H26a1.12,1.12,0,0,1,1,.57l1.17,2.06.94-2a1.1,1.1,0,0,1,1-.64h6.67a17.43,17.43,0,0,0-1.61-3.81,1.11,1.11,0,0,0-1-.56H5.82A1.13,1.13,0,0,0,4.85,12.92Z"/><path d="M30.81,19l-1.56,3.3a1.1,1.1,0,0,1-1,.63h0a1.11,1.11,0,0,1-1-.56L25.37,19H2.76a17.45,17.45,0,1,0,34.49,0Z"/><path d="M7.23,9.48l.38.66h2.57l-1-1.77,4.58-2.64a1.11,1.11,0,0,0-.24-2L4.58,1.05a1.11,1.11,0,0,0-1.4.8L1,10.9a1.11,1.11,0,0,0,.42,1.15,1.07,1.07,0,0,0,.66.22,1.12,1.12,0,0,0,.56-.15Z"/><path d="M37.9,1H32.31a1.12,1.12,0,0,0-1,.62l-4.15,8.52h2.47L33,3.23H37.9A1.12,1.12,0,0,0,37.9,1Z"/></svg>