<svg xmlns="http://www.w3.org/2000/svg" width="42" height="48" viewBox="0 0 42 48"><title>finger-print</title><path d="M1.54,18.6a1.65,1.65,0,0,1-.78-.2A1.61,1.61,0,0,1,.32,18a1.4,1.4,0,0,1-.27-.53,1.63,1.63,0,0,1,0-.58,1.56,1.56,0,0,1,.2-.56C2.15,13.14,8.08,5.63,21,5.63A24.87,24.87,0,0,1,35.6,10a24.55,24.55,0,0,1,6.13,6.31,1.45,1.45,0,0,1,.24.54,1.47,1.47,0,0,1,0,.59,1.34,1.34,0,0,1-.22.54,1.64,1.64,0,0,1-.42.41,1.54,1.54,0,0,1-1.16.23,1.56,1.56,0,0,1-1-.63C37.56,15.63,32.61,8.6,21,8.6,9.67,8.6,4.54,15.07,2.87,17.85a1.41,1.41,0,0,1-.56.55A1.48,1.48,0,0,1,1.54,18.6Z"/><path d="M27.51,48a1.64,1.64,0,0,1-.38,0c-9.38-2.3-12.88-11.59-13-12l0-.09c-.08-.26-2-6.63.93-10.36A7.16,7.16,0,0,1,21,23a6.44,6.44,0,0,1,5.48,2.34,11.39,11.39,0,0,1,1.8,4.4c.82,3.18,1.41,4.85,4.83,5a3.54,3.54,0,0,0,3-1.53c1.51-2,1.77-5.3.63-8.2C35.34,21.26,30.15,14.2,21,14.2a16.24,16.24,0,0,0-10.37,3.58,16.48,16.48,0,0,0-5.18,7.47C3.77,30.48,6,38.7,6,38.77a1.48,1.48,0,0,1,0,.59,1.38,1.38,0,0,1-.19.56,1.49,1.49,0,0,1-.4.43,1.6,1.6,0,0,1-1.7.1A1.5,1.5,0,0,1,3,39.54c-.1-.38-2.46-9.14-.52-15.18A19.26,19.26,0,0,1,21,11.21a19.58,19.58,0,0,1,12.44,4.43,21,21,0,0,1,6.24,8.29c1.51,3.86,1.1,8.18-1,11A6.62,6.62,0,0,1,33,37.71c-5.84-.29-6.89-4.33-7.66-7.28S24,26,21,26a4.14,4.14,0,0,0-3.53,1.39c-1,1.27-1.06,3.26-.95,4.71A15,15,0,0,0,17,35c.24.6,3.37,8.2,10.87,10a1.5,1.5,0,0,1,.53.24,1.36,1.36,0,0,1,.4.43,1.43,1.43,0,0,1,.21.55,1.46,1.46,0,0,1,0,.59,1.53,1.53,0,0,1-.56.81A1.58,1.58,0,0,1,27.51,48Z"/><path d="M15.48,47.31a1.58,1.58,0,0,1-.61-.12,1.54,1.54,0,0,1-.52-.35A23.89,23.89,0,0,1,7.68,33.13v0c-.45-3.61.21-8.72,3.42-12.24C13.48,18.27,16.81,17,21,17a12.33,12.33,0,0,1,11.28,6.59,18,18,0,0,1,2.12,6.38,1.42,1.42,0,0,1-.06.58,1.46,1.46,0,0,1-.28.52,1.63,1.63,0,0,1-.46.37,1.7,1.7,0,0,1-.57.17,1.57,1.57,0,0,1-1.13-.32,1.55,1.55,0,0,1-.57-1,15.5,15.5,0,0,0-1.8-5.33,9.27,9.27,0,0,0-8.54-5c-3.27,0-5.83,1-7.59,2.9-2.54,2.77-3,7.05-2.68,9.88A20.91,20.91,0,0,0,16.6,44.8a1.51,1.51,0,0,1,.31.5,1.4,1.4,0,0,1,.1.57,1.59,1.59,0,0,1-.14.57,1.35,1.35,0,0,1-.35.47A1.56,1.56,0,0,1,15.48,47.31Z"/><path d="M32.77,43a12.89,12.89,0,0,1-8.31-2.69c-4.48-3.58-5-9.41-5-9.65a1.53,1.53,0,0,1,.37-1.12A1.59,1.59,0,0,1,20.87,29,1.53,1.53,0,0,1,22,29.4a1.56,1.56,0,0,1,.54,1c0,.09.45,4.85,3.91,7.6,2,1.62,4.78,2.26,8.15,1.88a1.63,1.63,0,0,1,1.13.31,1.52,1.52,0,0,1,.58,1,1.67,1.67,0,0,1,0,.59,1.46,1.46,0,0,1-.28.52,1.5,1.5,0,0,1-.46.37,1.45,1.45,0,0,1-.57.17A17.55,17.55,0,0,1,32.77,43Z"/><path d="M35.36,3.28C34.08,2.45,29.54,0,21,0,12,0,7.49,2.71,6.48,3.4a1.24,1.24,0,0,0-.18.14h0a1.42,1.42,0,0,0-.38.5,1.38,1.38,0,0,0,0,1.19,1.63,1.63,0,0,0,.33.49,1.74,1.74,0,0,0,.5.31,1.51,1.51,0,0,0,.59.11,1.57,1.57,0,0,0,.89-.28C8.25,5.84,12.16,3,21,3S33.78,5.83,33.83,5.85a1.52,1.52,0,0,0,.93.3A1.46,1.46,0,0,0,35.34,6a1.38,1.38,0,0,0,.5-.32,1.61,1.61,0,0,0,.34-.48A1.46,1.46,0,0,0,36,3.83,1.47,1.47,0,0,0,35.36,3.28Z"/></svg>