<svg xmlns="http://www.w3.org/2000/svg" width="40" height="40" viewBox="0 0 40 40"><title>logout</title><path d="M39.87,17.7a1.54,1.54,0,0,0-.36-.55l-5-5a1.67,1.67,0,1,0-2.35,2.36l2.15,2.16H25A1.67,1.67,0,1,0,25,20h9.31l-2.15,2.15a1.65,1.65,0,0,0,0,2.36,1.65,1.65,0,0,0,2.35,0l5-5a1.51,1.51,0,0,0,.36-.54A1.64,1.64,0,0,0,39.87,17.7Z"/><path d="M28.33,23.33A1.66,1.66,0,0,0,26.67,25v8.33H20V6.67a1.66,1.66,0,0,0-1.19-1.6L13,3.33H26.67v8.34a1.67,1.67,0,0,0,3.33,0v-10A1.67,1.67,0,0,0,28.33,0H1.67c-.06,0-.12,0-.17,0l-.23,0A2.06,2.06,0,0,0,.79.28a.61.61,0,0,0-.12,0l0,0A1.69,1.69,0,0,0,.2.89,1.21,1.21,0,0,0,.15,1,1.79,1.79,0,0,0,0,1.42c0,.06,0,.1,0,.15s0,.06,0,.1V35a1.66,1.66,0,0,0,1.34,1.63L18,40l.32,0A1.67,1.67,0,0,0,20,38.33V36.67h8.33A1.67,1.67,0,0,0,30,35V25A1.67,1.67,0,0,0,28.33,23.33Z"/></svg>