<svg xmlns="http://www.w3.org/2000/svg" width="40" height="40" viewBox="0 0 40 40"><title>person</title><path d="M22.71,20c4.48,0,8.44-4.22,8.83-9.4a9,9,0,0,0-2.31-6.84A8.77,8.77,0,0,0,22.71,1a8.8,8.8,0,0,0-6.53,2.75,9,9,0,0,0-2.29,6.85C14.27,15.78,18.23,20,22.71,20Z"/><path d="M40.3,35.59a14.51,14.51,0,0,0-6.46-9.65,20.23,20.23,0,0,0-11.13-3.23,20.22,20.22,0,0,0-11.12,3.23,14.5,14.5,0,0,0-6.47,9.65,3,3,0,0,0,.61,2.46,2.54,2.54,0,0,0,.92.71A2.78,2.78,0,0,0,7.79,39H37.64a2.65,2.65,0,0,0,1.14-.24,2.62,2.62,0,0,0,.92-.7A3,3,0,0,0,40.3,35.59Z"/><path d="M7.11,22.71V19.32H10.5a1.33,1.33,0,0,0,1-.4,1.37,1.37,0,0,0,.4-1,1.39,1.39,0,0,0-.4-1,1.36,1.36,0,0,0-1-.39H7.11v-3.4a1.39,1.39,0,0,0-.4-1,1.36,1.36,0,0,0-1-.39,1.35,1.35,0,0,0-1.36,1.35v3.4H1A1.38,1.38,0,0,0,0,17a1.39,1.39,0,0,0-.4,1,1.37,1.37,0,0,0,.4,1,1.35,1.35,0,0,0,1,.4H4.39v3.39a1.37,1.37,0,0,0,.4,1,1.35,1.35,0,0,0,1,.4,1.33,1.33,0,0,0,1-.4A1.37,1.37,0,0,0,7.11,22.71Z"/></svg>