<svg xmlns="http://www.w3.org/2000/svg" width="40" height="40" viewBox="0 0 40 40"><title>plane</title><path d="M39.56.44a8.43,8.43,0,0,0-8.68,2.05l-8.35,8.35L5.13,3.38,1.81,6.7,15.9,17.47,8.29,25.08l-5-1.65L0,26.74l8.29,5,5,8.29,3.31-3.31-1.65-5,7.61-7.61L33.3,38.19l3.32-3.32-7.46-17.4,8.35-8.35A8.43,8.43,0,0,0,39.56.44Z"/><path d="M37.44,20.78a2.35,2.35,0,0,0-3.31,0l-.7.71,2,4.64,2-2A2.34,2.34,0,0,0,37.44,20.78Z"/><path d="M19.21,2.55a2.35,2.35,0,0,0-3.31,0l-2,2,4.64,2,.7-.7A2.34,2.34,0,0,0,19.21,2.55Z"/></svg>